<?xml version="1.0" encoding="UTF-8"?>
<svg id="Warstwa_2" xmlns="http://www.w3.org/2000/svg" viewBox="0 0 733.9 106.2">
  <defs>
    <style>
      .cls-1 {
        fill: #9d9d9d;
      }
    </style>
  </defs>
  <g id="Warstwa_2-2" data-name="Warstwa_2">
    <g>
      <g id="g32-8-8-1-18">
        <polygon id="polygon28-3-9-3-7" class="cls-1" points="17.3 75.2 33.3 75.2 60.1 28.8 86.9 75.2 103.2 75.2 60.3 .8 17.3 75.2"/>
        <polygon id="polygon30-5-4-8-9" class="cls-1" points="120.6 105.3 112.1 90.6 8.4 90.6 0 105.3 120.6 105.3"/>
      </g>
      <polygon id="polygon34-9-3-3-5" class="cls-1" points="139.2 89.5 154.9 105.3 154.9 .8 139.2 .8 139.2 89.5"/>
      <path id="path36-8-2-7-2" class="cls-1" d="M259.6,106h17.9l-2.3-4h0l-24.6-42.6c12.7-3.3,22.1-14.7,22.1-28.4h0c0-16.2-13.2-29.4-29.4-29.4h-32.6v15.2h29.8c9.1,0,16.5,6.3,16.5,14.1s-7.4,14.1-16.5,14.1h-29.9v15.3h22.6l26.4,45.7h0Z"/>
      <polygon id="polygon38-4-9-6-9" class="cls-1" points="334 16.8 348.1 16.8 348.1 16.8 333 1.7 290.7 1.7 290.7 16.8 318.8 16.8 318.8 91 334 106.1 334 104.8 334 16.8"/>
      <polygon id="polygon40-0-1-1-37" class="cls-1" points="366.5 90.2 382.2 106 382.2 1.5 366.5 1.5 366.5 90.2"/>
      <polygon id="polygon42-7-2-3-0" class="cls-1" points="426.9 0 411.2 0 411.2 88.7 426.9 104.4 426.9 104.4 459.4 104.4 459.4 88 426.9 88 426.9 0"/>
      <polygon id="polygon44-6-0-6-4" class="cls-1" points="486.5 90.2 502.3 106 502.3 1.5 486.5 1.5 486.5 90.2"/>
      <g id="g54-6-9-5-5">
        <circle id="circle46-8-8-2-85" class="cls-1" cx="579.2" cy="54.07" r="16.6" transform="translate(-1.19 93.3) rotate(-9.2)"/>
        <g id="g52-0-2-7-5">
          <path id="path48-3-2-3-2" class="cls-1" d="M543.7,46.6c3.3-16.5,17.9-28.9,35.4-28.9s32.1,12.4,35.4,28.9h16.3c-3.5-25.5-25.3-45.1-51.8-45.1s-48.2,19.6-51.8,45.1h16.5,0Z"/>
          <path id="path50-5-6-2-6" class="cls-1" d="M579.2,90c-17.5,0-32.1-12.4-35.4-28.9h-16.3c3.5,25.5,25.3,45.1,51.8,45.1s48.2-19.6,51.8-45.1h-16.3c-3.3,16.5-17.9,28.9-35.4,28.9h-.2,0Z"/>
        </g>
      </g>
      <g id="g60-1-2-8-4">
        <rect id="rect56-9-8-6-1" class="cls-1" x="718.1" y="1.7" width="15.7" height="21.1"/>
        <polygon id="polygon58-8-4-5-7" class="cls-1" points="722.6 94.9 733.9 106.1 733.9 38 718.1 38 718.1 68.2 667.6 17.6 667.6 17.6 651.9 1.9 651.9 90.4 667.6 106.1 667.6 39.9 722.6 94.9 722.6 94.9"/>
      </g>
      <polygon id="polygon34-9-3-3-5-2" class="cls-1" points="187.3 90.2 203 106 203 1.5 187.3 1.5 187.3 90.2"/>
    </g>
  </g>
</svg>